<svg xmlns="http://www.w3.org/2000/svg" viewBox="0 0 1120 780" font-family="ui-monospace,SFMono-Regular,Menlo,Consolas,monospace" font-size="14">
<rect x="0" y="0" width="1120" height="780" rx="10" fill="#0a0a0a"/>
<style>.b{font-weight:700}.d{fill:#8a8f98}.w{fill:#eceff4}.m{fill:#bf9cf0}.c{fill:#5cc8d7}.g{fill:#7cc77e}.y{fill:#d8b65f}.r{fill:#e06161}.bl{fill:#60a5fa}.x{fill:#5b6068}</style>
<text x="26" y="38" class="g b" xml:space="preserve">                                 ░██<animate attributeName="opacity" values="1;0.25;1" dur="1.1s" repeatCount="indefinite"/></text>
<text x="26" y="62" class="w b" xml:space="preserve">░████████   ░███████   ░██████   ░██</text>
<text x="26" y="78" class="w b" xml:space="preserve">░██    ░██ ░██              ░██  ░██</text>
<text x="26" y="94" class="w b" xml:space="preserve">░██    ░██  ░███████   ░███████  ░██</text>
<text x="26" y="110" class="w b" xml:space="preserve">░███   ░██        ░██ ░██   ░██  ░██</text>
<text x="26" y="126" class="w b" xml:space="preserve">░██░█████   ░███████   ░█████░██ ░██</text>
<text x="26" y="142" class="w b" xml:space="preserve">░██                version:    1.1.3</text>
<text x="26" y="158" class="w b" xml:space="preserve">░██                release:   github</text>
<text x="26" y="188"><tspan class="d">Status:</tspan><tspan x="110" class="bl b">single · local · psai.lan</tspan></text>
<text x="26" y="210"><tspan class="d">Stack:</tspan><tspan x="110" class="w b">psai</tspan></text>

<text x="26" y="246" class="c b">▌ Host</text>
<line x1="26" y1="256" x2="1050" y2="256" stroke="#2a2d33"/>
<circle cx="42" cy="275" r="4.4" class="g"/><text y="280"><tspan x="62" class="x">HOST:</tspan><tspan x="150" class="w b">ai-server</tspan><tspan x="450" class="x">OS:</tspan><tspan x="535" class="w b">Darwin 25.5.0 arm64</tspan></text>
<circle cx="42" cy="298" r="4.4" class="g"/><text y="303"><tspan x="62" class="x">RAM:</tspan><tspan x="150" class="g b">63% live / 24.0GB</tspan><tspan x="450" class="x">DOCKER:</tspan><tspan x="535" class="g b">29.6.1</tspan></text>
<circle cx="42" cy="321" r="4.4" class="g"/><text y="326"><tspan x="62" class="x">CPU:</tspan><tspan x="150" class="g b">33% live / 10 cores</tspan><tspan x="450" class="x">CTX:</tspan><tspan x="535" class="w b">desktop-linux</tspan></text>
<circle cx="42" cy="344" r="4.4" class="g"/><text y="349"><tspan x="62" class="x">DISK:</tspan><tspan x="150" class="g b">288Gi/460Gi (67%)</tspan><tspan x="450" class="x">DIR:</tspan><tspan x="535" class="d">/Users/ai/psai</tspan></text>

<text x="26" y="368" class="c b">▌ Components</text>
<line x1="26" y1="378" x2="1050" y2="378" stroke="#2a2d33"/>
<text y="400"><tspan x="72" class="x">NAME</tspan><tspan x="250" class="x">IMAGE</tspan><tspan x="410" class="x">STATE</tspan><tspan x="500" class="x">HEALTH</tspan><tspan x="628" class="x">NAME</tspan><tspan x="806" class="x">IMAGE</tspan><tspan x="946" class="x">STATE</tspan><tspan x="1016" class="x">HEALTH</tspan></text>
<circle cx="44" cy="420" r="4.4" class="g"/><text y="425"><tspan x="62" class="w b">caddy</tspan><tspan x="250" class="d">caddy:2.9-alpine</tspan><tspan x="410" class="w b">running</tspan><tspan x="500" class="g b">healthy</tspan></text>
<circle cx="600" cy="420" r="4.4" class="g"/><text y="425"><tspan x="622" class="w b">ollama-raw</tspan><tspan x="806" class="d">ollama:latest</tspan><tspan x="946" class="w b">running</tspan><tspan x="1016" class="g b">healthy</tspan></text>
<circle cx="44" cy="444" r="4.4" class="g"/><text y="449"><tspan x="62" class="w b">forgejo</tspan><tspan x="250" class="d">forgejo:15</tspan><tspan x="410" class="w b">running</tspan><tspan x="500" class="g b">healthy</tspan></text>
<circle cx="600" cy="444" r="4.4" class="g"/><text y="449"><tspan x="622" class="w b">openhands</tspan><tspan x="806" class="d">openhands:1.8.0</tspan><tspan x="946" class="w b">running</tspan><tspan x="1016" class="g b">healthy</tspan></text>
<circle cx="44" cy="468" r="4.4" class="g"/><text y="473"><tspan x="62" class="w b">langfuse</tspan><tspan x="250" class="d">langfuse:2</tspan><tspan x="410" class="w b">running</tspan><tspan x="500" class="g b">healthy</tspan></text>
<circle cx="600" cy="468" r="4.4" class="g"/><text y="473"><tspan x="622" class="w b">openwebui</tspan><tspan x="806" class="d">open-webui:main</tspan><tspan x="946" class="w b">running</tspan><tspan x="1016" class="g b">healthy</tspan></text>
<circle cx="44" cy="492" r="4.4" class="g"/><text y="497"><tspan x="62" class="w b">litellm</tspan><tspan x="250" class="d">litellm:main</tspan><tspan x="410" class="w b">running</tspan><tspan x="500" class="g b">healthy</tspan></text>
<circle cx="600" cy="492" r="4.4" class="g"/><text y="497"><tspan x="622" class="w b">proxy-stack</tspan><tspan x="806" class="d">tinyproxy:latest</tspan><tspan x="946" class="w b">running</tspan><tspan x="1016" class="g b">healthy</tspan></text>
<circle cx="44" cy="516" r="4.4" class="g"/><text y="521"><tspan x="62" class="w b">mcp-gateway</tspan><tspan x="250" class="d">mcp-gateway</tspan><tspan x="410" class="w b">running</tspan><tspan x="500" class="g b">healthy</tspan></text>
<circle cx="600" cy="516" r="4.4" class="g"/><text y="521"><tspan x="622" class="w b">proxy-web</tspan><tspan x="806" class="d">tinyproxy:latest</tspan><tspan x="946" class="w b">running</tspan><tspan x="1016" class="g b">healthy</tspan></text>
<circle cx="44" cy="540" r="4.4" class="g"/><text y="545"><tspan x="62" class="w b">memory</tspan><tspan x="250" class="d">cognee-mcp:main</tspan><tspan x="410" class="w b">running</tspan><tspan x="500" class="g b">healthy</tspan></text>
<circle cx="600" cy="540" r="4.4" class="g"/><text y="545"><tspan x="622" class="w b">qdrant</tspan><tspan x="806" class="d">qdrant:latest</tspan><tspan x="946" class="w b">running</tspan><tspan x="1016" class="g b">healthy</tspan></text>

<text x="26" y="586" class="c b">▌ Network</text>
<line x1="26" y1="596" x2="1050" y2="596" stroke="#2a2d33"/>
<text y="618"><tspan x="44" class="g">●</tspan><tspan x="62" class="w b">proxy-stack:</tspan><tspan x="186" class="c b">none</tspan><tspan x="286" class="w b">traffic: 330KB / 324KB</tspan><tspan x="540" class="d">LLM + stack component updates</tspan></text>
<text y="642"><tspan x="44" class="g">●</tspan><tspan x="62" class="w b">proxy-web:</tspan><tspan x="186" class="c b">tor</tspan><tspan x="286" class="w b">traffic: 1.2MB / 980KB</tspan><tspan x="540" class="d">web worker</tspan></text>

<text x="26" y="674" class="c b">▌ Security</text>
<line x1="26" y1="684" x2="1050" y2="684" stroke="#2a2d33"/>
<text y="708"><tspan x="44" class="g">●</tspan><tspan x="62" class="d">profile:</tspan><tspan x="132" class="g b">strict</tspan><tspan x="210" class="g">●</tspan><tspan x="228" class="d">tls:</tspan><tspan x="270" class="g b">true</tspan><tspan x="330" class="g">●</tspan><tspan x="348" class="d">vault:</tspan><tspan x="408" class="g b">true</tspan><tspan x="468" class="g">●</tspan><tspan x="486" class="d">firewall:</tspan><tspan x="574" class="g b">true</tspan><tspan x="634" class="g">●</tspan><tspan x="652" class="d">watchdog:</tspan><tspan x="742" class="g b">true</tspan></text>
<text y="744"><tspan x="26" class="c b">Manage stack</tspan><tspan x="190" class="d">Ctrl+F interactive mode  Ctrl+I settings  Ctrl+H command list  Ctrl+Q Exit</tspan></text>
</svg>
